<?xml version="1.0" encoding="utf-8"?>
<!-- Generator: Adobe Illustrator 15.0.0, SVG Export Plug-In . SVG Version: 6.00 Build 0)  -->
<!DOCTYPE svg PUBLIC "-//W3C//DTD SVG 1.1//EN" "http://www.w3.org/Graphics/SVG/1.1/DTD/svg11.dtd">
<svg version="1.1" id="Layer_1" xmlns="http://www.w3.org/2000/svg" xmlns:xlink="http://www.w3.org/1999/xlink" x="0px" y="0px"
	 width="30px" height="17px" viewBox="0 0 30 17" enable-background="new 0 0 30 17" xml:space="preserve">
<g>
	<g transform="matrix( 1, 0, 0, 1, 0,0) ">
		<g>
			<g id="Layer0_0_FILL">
				<path fill="#010101" d="M14.811,3.295h-1.904l-2.98,4.73c-0.17,0.285-0.332,0.559-0.484,0.818
					C9.293,9.11,9.167,9.38,9.065,9.653c-0.104,0.265-0.183,0.552-0.236,0.862c-0.058,0.294-0.088,0.624-0.088,0.989
					c0,0.582,0.107,1.109,0.324,1.579c0.219,0.458,0.511,0.858,0.874,1.199c0.368,0.332,0.797,0.589,1.286,0.773
					c0.495,0.17,1.021,0.254,1.582,0.254c0.546,0,1.066-0.078,1.56-0.24c0.489-0.172,0.917-0.423,1.286-0.756
					c0.365-0.338,0.655-0.756,0.874-1.251c0.216-0.487,0.323-1.066,0.323-1.729c0-0.641-0.107-1.195-0.323-1.661
					c-0.23-0.48-0.516-0.875-0.862-1.184c-0.353-0.298-0.748-0.52-1.184-0.668c-0.431-0.151-0.859-0.229-1.284-0.229
					c-0.504,0-0.935,0.092-1.299,0.275H11.83L14.811,3.295 M15.087,10.48c0.11,0.296,0.169,0.622,0.169,0.977
					c0,0.353-0.059,0.685-0.169,0.994c-0.127,0.297-0.298,0.552-0.52,0.768c-0.214,0.22-0.47,0.393-0.766,0.52
					c-0.3,0.112-0.633,0.166-0.995,0.166c-0.378,0-0.714-0.054-1.01-0.166c-0.3-0.127-0.558-0.3-0.774-0.52
					c-0.221-0.216-0.385-0.471-0.499-0.768c-0.124-0.31-0.187-0.642-0.187-0.994c0.009-0.354,0.071-0.681,0.187-0.977
					c0.114-0.309,0.278-0.574,0.499-0.794c0.216-0.206,0.474-0.372,0.774-0.499C12.101,9.063,12.438,9,12.806,9
					c0.362,0,0.695,0.063,0.995,0.188c0.296,0.119,0.552,0.286,0.766,0.499C14.789,9.915,14.96,10.179,15.087,10.48 M1.798,3.557
					C1.156,3.912,0.682,4.47,0.371,5.232l1.628,0.551C2.184,5.372,2.446,5.04,2.787,4.788c0.355-0.25,0.75-0.376,1.185-0.376
					c0.573,0,1.049,0.159,1.426,0.478c0.376,0.324,0.565,0.802,0.565,1.44c0,0.286-0.047,0.548-0.141,0.786
					c-0.09,0.229-0.243,0.426-0.458,0.586C5.135,7.85,4.825,7.971,4.435,8.064C4.045,8.143,3.547,8.18,2.942,8.18v1.406
					c0.375,0,0.76,0.023,1.148,0.073C4.482,9.69,4.836,9.787,5.155,9.95c0.318,0.148,0.582,0.371,0.787,0.664
					c0.206,0.288,0.31,0.677,0.31,1.165c0,0.331-0.055,0.623-0.168,0.873c-0.126,0.266-0.291,0.491-0.497,0.675
					c-0.221,0.184-0.467,0.33-0.741,0.443c-0.26,0.104-0.552,0.155-0.874,0.155c-0.615,0-1.083-0.138-1.407-0.411
					c-0.305-0.287-0.555-0.711-0.753-1.271l-1.696,0.517c0.265,0.889,0.737,1.541,1.419,1.953c0.686,0.411,1.483,0.617,2.389,0.617
					c0.525,0,1.021-0.073,1.486-0.223c0.479-0.145,0.899-0.358,1.252-0.64c0.367-0.28,0.66-0.639,0.875-1.075
					c0.22-0.421,0.331-0.918,0.331-1.492c0-0.365-0.053-0.713-0.156-1.045c-0.103-0.317-0.252-0.616-0.451-0.894
					C7.06,9.704,6.815,9.48,6.528,9.297C6.24,9.126,5.916,9.007,5.553,8.939V8.9c0.59-0.18,1.075-0.518,1.452-1.009
					c0.369-0.48,0.552-1.036,0.552-1.664c0-0.547-0.098-1.019-0.296-1.418C7.069,4.396,6.806,4.057,6.475,3.793
					C6.142,3.519,5.754,3.319,5.311,3.194C4.875,3.068,4.418,3.005,3.937,3.005C3.147,3.005,2.436,3.189,1.798,3.557 M23.895,6.963
					c0.021,0.102,0.037,0.206,0.047,0.308c0.071,0.354,0.115,0.7,0.121,1.028c0.021,0.343,0.032,0.646,0.032,0.91
					c0,0.398-0.025,0.861-0.08,1.385c-0.048,0.54-0.158,1.055-0.329,1.548c-0.162,0.502-0.404,0.923-0.734,1.266
					c-0.331,0.347-0.771,0.519-1.324,0.519c-0.557,0-1-0.172-1.33-0.519c-0.324-0.343-0.571-0.764-0.741-1.266
					c-0.171-0.493-0.281-1.008-0.325-1.548c-0.057-0.523-0.086-0.986-0.086-1.385c0.01-0.265,0.02-0.567,0.033-0.91
					c0.014-0.328,0.053-0.674,0.117-1.028c0.062-0.354,0.148-0.69,0.261-1.009c0.114-0.332,0.263-0.629,0.442-0.895
					c0.186-0.259,0.408-0.47,0.674-0.632c0.272-0.148,0.592-0.223,0.955-0.223c0.035,0,0.07,0,0.108,0
					c-0.038-0.215-0.054-0.437-0.054-0.667c0-0.251,0.023-0.498,0.067-0.74c-0.044,0-0.087,0-0.122,0
					c-0.557,0-1.048,0.091-1.473,0.276c-0.408,0.183-0.768,0.428-1.078,0.733c-0.307,0.311-0.561,0.671-0.753,1.083
					c-0.196,0.413-0.353,0.841-0.466,1.285c-0.115,0.458-0.197,0.919-0.242,1.386c-0.043,0.457-0.067,0.904-0.067,1.34
					c0,0.627,0.058,1.296,0.169,2.005c0.104,0.723,0.311,1.386,0.62,1.992c0.296,0.614,0.708,1.121,1.236,1.521
					c0.536,0.402,1.219,0.604,2.054,0.604c0.836,0,1.516-0.202,2.047-0.604c0.523-0.399,0.932-0.906,1.23-1.521
					c0.309-0.606,0.52-1.27,0.635-1.992c0.1-0.709,0.152-1.378,0.152-2.005c0-0.422-0.022-0.868-0.068-1.34
					c-0.021-0.26-0.055-0.51-0.1-0.754c-0.141,0.015-0.29,0.021-0.453,0.021C24.647,7.137,24.258,7.078,23.895,6.963z"/>
			</g>
		</g>
	</g>
	<g transform="matrix( 1, 0, 0, 1, -3.2,5.6) ">
		<g>
			<g id="Layer0_1_FILL">
				<path fill="#E21E29" d="M31.397-3.704c-0.686-0.659-1.586-0.987-2.701-0.987c-1.121,0-2.02,0.328-2.702,0.987
					c-0.698,0.676-1.047,1.551-1.047,2.626c0,1.095,0.349,1.974,1.047,2.632c0.683,0.643,1.581,0.976,2.702,0.994
					c1.115,0,2.016-0.331,2.701-0.994c0.695-0.658,1.041-1.537,1.041-2.632C32.438-2.153,32.093-3.029,31.397-3.704z"/>
			</g>
		</g>
		<g>
			
				<path id="Layer0_1_1_STROKES" fill="none" stroke="#E0E9F5" stroke-width="1.5" stroke-linecap="round" stroke-linejoin="round" d="
				M28.696,2.548c-1.121-0.019-2.02-0.352-2.702-0.994c-0.698-0.658-1.047-1.537-1.047-2.632c0-1.075,0.349-1.951,1.047-2.626
				c0.683-0.659,1.581-0.987,2.702-0.987c1.115,0,2.016,0.328,2.701,0.987c0.695,0.676,1.041,1.551,1.041,2.626
				c0,1.095-0.346,1.974-1.041,2.632C30.712,2.217,29.811,2.548,28.696,2.548z"/>
		</g>
	</g>
</g>
</svg>
